# xmcd
#
# Track frame offsets:
#	180
#	21883
#	41921
#	59462
#	77500
#	99852
#	117287
#	131554
#	153134
#	175750
#	209936
#	231564
#	243994
#	263094
#	281910
#
# Disc length: 4007 seconds
#
# Revision: 0
# Processed by: cddbd v1.5.1PL2 Copyright (c) Steve Scherf et al.
# Submitted via: audiograbber 1.83.01
#
DISCID=d40fa50f
DTITLE=Blues Busters - Der aufregend andere Blues
DYEAR=1995
DGENRE=Blues
TTITLE0=I'm Ready
TTITLE1=Somekind Of Wonderful
TTITLE2=Mojo Working
TTITLE3=No More Do Yakomo
TTITLE4=Everyday I Have The Blues
TTITLE5=Gangster Of Love
TTITLE6=Susie
TTITLE7=Drinks Sex And Rock ´n Roll
TTITLE8=Trouble In Paradise
TTITLE9=Mothers Little Child
TTITLE10=Hoochie Coochie Man
TTITLE11=Boom Boom Boom
TTITLE12=Worry About You
TTITLE13=Who's Been Talking
TTITLE14=Blues Overlook Me
EXTD=
EXTT0=
EXTT1=
EXTT2=
EXTT3=
EXTT4=
EXTT5=
EXTT6=
EXTT7=
EXTT8=
EXTT9=
EXTT10=
EXTT11=
EXTT12=
EXTT13=
EXTT14=
PLAYORDER=
